<svg xmlns="http://www.w3.org/2000/svg" xmlns:xlink="http://www.w3.org/1999/xlink" width="500" zoomAndPan="magnify" viewBox="0 0 375 374.999991" height="500" preserveAspectRatio="xMidYMid meet" version="1.0"><defs><g/><clipPath id="5ba5c3fbbc"><path d="M 137 186 L 158.886719 186 L 158.886719 215 L 137 215 Z M 137 186 " clip-rule="nonzero"/></clipPath><clipPath id="58dfae4014"><path d="M 120.636719 186 L 143 186 L 143 215 L 120.636719 215 Z M 120.636719 186 " clip-rule="nonzero"/></clipPath></defs><rect x="-37.5" width="450" fill="#ffffff" y="-37.499999" height="449.999989" fill-opacity="1"/><rect x="-37.5" width="450" fill="#ffffff" y="-37.499999" height="449.999989" fill-opacity="1"/><g clip-path="url(#5ba5c3fbbc)"><path fill="#ff3131" d="M 153.179688 205.53125 L 158.558594 208.628906 L 158.558594 203.253906 L 153.179688 200.15625 L 153.179688 186.238281 L 147.804688 186.238281 L 147.804688 207.921875 L 137.117188 201.773438 L 137.117188 207.148438 L 140.789062 209.25 L 147.804688 213.320312 L 150.105469 214.648438 L 153.179688 214.648438 Z M 153.179688 205.53125 " fill-opacity="1" fill-rule="evenodd"/></g><g clip-path="url(#58dfae4014)"><path fill="#ff5757" d="M 126.011719 195.355469 L 120.636719 192.234375 L 120.636719 197.613281 L 126.011719 200.730469 L 126.011719 214.648438 L 131.386719 214.648438 L 131.386719 192.945312 L 142.074219 199.117188 L 142.074219 193.742188 L 138.421875 191.617188 L 131.386719 187.566406 L 129.085938 186.238281 L 126.011719 186.238281 Z M 126.011719 195.355469 " fill-opacity="1" fill-rule="evenodd"/></g><g fill="#ff3131" fill-opacity="1"><g transform="translate(164.969254, 207.759874)"><g><path d="M 3.296875 -11.53125 L 5.953125 -11.53125 C 7.710938 -11.53125 8.59375 -10.785156 8.59375 -9.296875 L 8.59375 -2.21875 C 8.59375 -0.738281 7.710938 0 5.953125 0 L 3.296875 0 C 1.546875 0 0.671875 -0.738281 0.671875 -2.21875 L 0.671875 -9.296875 C 0.671875 -10.785156 1.546875 -11.53125 3.296875 -11.53125 Z M 5.453125 -2.640625 L 5.453125 -8.890625 C 5.453125 -9.148438 5.304688 -9.28125 5.015625 -9.28125 L 4.25 -9.28125 C 3.957031 -9.28125 3.8125 -9.148438 3.8125 -8.890625 L 3.8125 -2.640625 C 3.8125 -2.378906 3.957031 -2.25 4.25 -2.25 L 5.015625 -2.25 C 5.304688 -2.25 5.453125 -2.378906 5.453125 -2.640625 Z M 5.453125 -2.640625 "/></g></g></g><g fill="#ff3131" fill-opacity="1"><g transform="translate(176.747349, 207.759874)"><g><path d="M 5.546875 -7.203125 L 5.546875 -9.0625 C 5.546875 -9.332031 5.394531 -9.46875 5.09375 -9.46875 L 3.8125 -9.46875 L 3.8125 -6.796875 L 5.09375 -6.796875 C 5.394531 -6.796875 5.546875 -6.929688 5.546875 -7.203125 Z M 5.546875 -2.453125 L 5.546875 -4.34375 C 5.546875 -4.601562 5.394531 -4.734375 5.09375 -4.734375 L 3.8125 -4.734375 L 3.8125 -2.0625 L 5.09375 -2.0625 C 5.394531 -2.0625 5.546875 -2.191406 5.546875 -2.453125 Z M 0.71875 -11.53125 L 6 -11.53125 C 7.757812 -11.53125 8.640625 -10.785156 8.640625 -9.296875 L 8.640625 -7.828125 C 8.640625 -6.785156 8.351562 -6.109375 7.78125 -5.796875 C 8.113281 -5.648438 8.335938 -5.429688 8.453125 -5.140625 C 8.578125 -4.847656 8.640625 -4.453125 8.640625 -3.953125 L 8.640625 -2.21875 C 8.640625 -0.738281 7.757812 0 6 0 L 0.71875 0 Z M 0.71875 -11.53125 "/></g></g></g><g fill="#ff3131" fill-opacity="1"><g transform="translate(188.525445, 207.759874)"><g><path d="M 6.59375 0 L 6.234375 -1.71875 L 3.46875 -1.71875 L 3.09375 0 L 0 0 L 2.96875 -11.53125 L 6.78125 -11.53125 L 9.75 0 Z M 3.953125 -3.953125 L 5.75 -3.953125 L 4.859375 -8.09375 Z M 3.953125 -3.953125 "/></g></g></g><g fill="#ff3131" fill-opacity="1"><g transform="translate(200.788278, 207.759874)"><g><path d="M 3.859375 -4.09375 L 3.859375 0 L 0.71875 0 L 0.71875 -11.53125 L 6.046875 -11.53125 C 7.804688 -11.53125 8.6875 -10.785156 8.6875 -9.296875 L 8.6875 -6.3125 C 8.6875 -5.175781 8.171875 -4.476562 7.140625 -4.21875 L 9.265625 0 L 5.890625 0 L 4.0625 -4.09375 Z M 5.09375 -9.28125 L 3.859375 -9.28125 L 3.859375 -6.234375 L 5.09375 -6.234375 C 5.394531 -6.234375 5.546875 -6.363281 5.546875 -6.625 L 5.546875 -8.890625 C 5.546875 -9.148438 5.394531 -9.28125 5.09375 -9.28125 Z M 5.09375 -9.28125 "/></g></g></g></svg>